# xmcd
#
# Track frame offsets:
#	150
#	10331
#	23646
#	37233
#	54458
#	67199
#	85945
#	101819
#	116318
#	132858
#	145729
#	165958
#	176741
#	192595
#
# Disc length: 2717 seconds
#
# Revision: 1
# Processed by: cddbd v1.5.2PL0 Copyright (c) Steve Scherf et al.
# Submitted via: audiograbber 1.83.01
#
DISCID=c00a9b0e
DTITLE=Philomena Begley - Ireland's Queen Of Country
DYEAR=1900
DGENRE=
TTITLE0=Dancing At The Fay Doe Doe
TTITLE1=The Way Old Friends Do
TTITLE2=Golden Memories
TTITLE3=I'll Remember You
TTITLE4=Husband Hunting
TTITLE5=Green Fields Around Ardboe
TTITLE6=Down At The Twist And Shout
TTITLE7=I Feel In Love
TTITLE8=How You Play The Game
TTITLE9=Bayou Baby
TTITLE10=Gold And Silver Days
TTITLE11=Louisiana Saturday Night
TTITLE12=Crystal Chandeliers
TTITLE13=The Fiddle And Guitar Band
EXTD=
EXTT0=
EXTT1=
EXTT2=
EXTT3=
EXTT4=
EXTT5=
EXTT6=
EXTT7=
EXTT8=
EXTT9=
EXTT10=
EXTT11=
EXTT12=
EXTT13=
PLAYORDER=
